<svg id="Layer_1" data-name="Layer 1" xmlns="http://www.w3.org/2000/svg" viewBox="0 0 565.59 358.59"><defs><style>.cls-1{fill:#72c8f1;}.cls-2{fill:#d1d3d4;}</style></defs><path class="cls-1" d="M229.68,63.38h37.61a0,0,0,0,1,0,0V283.64a12.57,12.57,0,0,1-12.57,12.57H242.26a12.57,12.57,0,0,1-12.57-12.57V63.38a0,0,0,0,1,0,0Z" transform="translate(553.58 211.26) rotate(150)"/><path class="cls-1" d="M298.29,63.38H335.9a0,0,0,0,1,0,0V283.64a12.57,12.57,0,0,1-12.57,12.57H310.86a12.57,12.57,0,0,1-12.57-12.57V63.38a0,0,0,0,1,0,0Z" transform="translate(501.81 494.05) rotate(-150)"/><path class="cls-2" d="M404.19,123.62,389.6,150.76l9.75-18.44c4.34-8.22-.07-19.29-10-25L383.82,117l.33.09c9.88,5.7,14.38,16.62,10.15,24.64l-8.45,16-47.61,88.58-3.54,6.6L328.75,264,314.33,237,396.15,95.33A21.12,21.12,0,0,1,404.19,123.62Z"/></svg>